<svg width="95" height="59" viewBox="0 0 95 59" fill="none" xmlns="http://www.w3.org/2000/svg">
<path d="M92.1912 0.148351C92.4395 0.0274962 92.7387 0.1308 92.8596 0.379087L94.8291 4.42521C94.95 4.6735 94.8467 4.97275 94.5984 5.09361C94.3501 5.21447 94.0508 5.11116 93.93 4.86288L92.1793 1.26632L88.5827 3.01699C88.3345 3.13784 88.0352 3.03454 87.9143 2.78625C87.7935 2.53796 87.8968 2.23871 88.1451 2.11785L92.1912 0.148351ZM0.727363 57.311C36.4126 57.6846 59.2074 43.4494 73.0866 29.1378C80.0306 21.9775 84.7467 14.7935 87.726 9.40119C89.2154 6.7054 90.2701 4.45856 90.9516 2.88804C91.2923 2.10282 91.5397 1.48679 91.7015 1.06841C91.7823 0.859209 91.8418 0.69944 91.8808 0.592644C91.9003 0.539246 91.9147 0.499095 91.9241 0.472636C91.9288 0.459406 91.9322 0.449596 91.9344 0.443267C91.9355 0.440098 91.9363 0.437807 91.9368 0.436387C91.9371 0.435681 91.9372 0.43527 91.9373 0.434917C91.9374 0.43473 91.9374 0.434766 92.41 0.597921C92.8827 0.761076 92.8825 0.761552 92.8823 0.762251C92.8821 0.762777 92.8818 0.7637 92.8814 0.764752C92.8807 0.766856 92.8796 0.769839 92.8783 0.773691C92.8756 0.781404 92.8716 0.792602 92.8664 0.807227C92.856 0.836482 92.8406 0.879455 92.8201 0.935706C92.779 1.04821 92.7174 1.21383 92.6342 1.42899C92.4678 1.85931 92.2153 2.48786 91.8689 3.28611C91.1762 4.88255 90.1077 7.15824 88.6012 9.8848C85.5888 15.3372 80.8226 22.5972 73.8045 29.834C59.7594 44.3165 36.7103 58.6878 0.716889 58.3109L0.727363 57.311Z" fill="#EA4927"/>
</svg>
