<svg width="101" height="138" viewBox="0 0 101 138" fill="none" xmlns="http://www.w3.org/2000/svg">
<path d="M7.606 26.3362H2.386V13.0162H7.426C11.332 13.0162 14.05 15.7522 14.05 19.7122C14.05 23.6002 11.404 26.3362 7.606 26.3362ZM7.138 15.7162H5.302V23.6362H7.318C9.622 23.6362 10.972 22.1782 10.972 19.7122C10.972 17.1922 9.55 15.7162 7.138 15.7162ZM19.9134 26.5702C17.1954 26.5702 15.2514 24.5902 15.2514 21.8182C15.2514 19.0102 17.1414 17.0482 19.8594 17.0482C22.6854 17.0482 24.4494 18.9022 24.4494 21.8362V22.5382L17.9154 22.5742C18.0774 23.7622 18.7434 24.3202 19.9674 24.3202C21.0114 24.3202 21.7494 23.9422 21.9474 23.2942H24.4854C24.1614 25.2922 22.3794 26.5702 19.9134 26.5702ZM19.8774 19.2982C18.7794 19.2982 18.1674 19.7842 17.9514 20.8642H21.6954C21.6954 19.9102 20.9934 19.2982 19.8774 19.2982ZM28.8629 26.3362H26.0909V12.7642H28.8629V26.3362ZM34.5784 26.3362H31.8064V19.6402H30.0964V17.3362H31.8064V14.5462H34.5784V17.3362H36.2884V19.6402H34.5784V26.3362ZM40.2522 26.5702C38.3442 26.5702 37.1562 25.4542 37.1562 23.6902C37.1562 22.0342 38.3262 21.0082 40.4862 20.8462L43.0062 20.6482V20.5042C43.0062 19.6222 42.4662 19.1542 41.4762 19.1542C40.3062 19.1542 39.6762 19.6042 39.6762 20.4142H37.3722C37.3722 18.3802 39.0462 17.0482 41.6202 17.0482C44.2302 17.0482 45.7062 18.5062 45.7062 21.0802V26.3362H43.2582L43.0782 25.1482C42.7902 25.9762 41.6022 26.5702 40.2522 26.5702ZM41.2242 24.5182C42.2862 24.5182 43.0242 23.9962 43.0242 22.9702V22.4842L41.6202 22.6102C40.4142 22.7182 39.9822 22.9882 39.9822 23.5642C39.9822 24.2122 40.3782 24.5182 41.2242 24.5182ZM58.0201 26.3362H52.8001V13.0162H57.8401C61.7461 13.0162 64.4641 15.7522 64.4641 19.7122C64.4641 23.6002 61.8181 26.3362 58.0201 26.3362ZM57.5521 15.7162H55.7161V23.6362H57.7321C60.0361 23.6362 61.3861 22.1782 61.3861 19.7122C61.3861 17.1922 59.9641 15.7162 57.5521 15.7162ZM70.3274 26.5702C67.6094 26.5702 65.6654 24.5902 65.6654 21.8182C65.6654 19.0102 67.5554 17.0482 70.2734 17.0482C73.0994 17.0482 74.8634 18.9022 74.8634 21.8362V22.5382L68.3294 22.5742C68.4914 23.7622 69.1574 24.3202 70.3814 24.3202C71.4254 24.3202 72.1634 23.9422 72.3614 23.2942H74.8994C74.5754 25.2922 72.7934 26.5702 70.3274 26.5702ZM70.2914 19.2982C69.1934 19.2982 68.5814 19.7842 68.3654 20.8642H72.1094C72.1094 19.9102 71.4074 19.2982 70.2914 19.2982ZM76.5409 22.7002V20.2522H82.6969V22.7002H76.5409ZM92.7574 21.1342H88.0774V26.3362H85.1614V13.0162H93.6394V15.7162H88.0774V18.5062H92.7574V21.1342ZM96.664 15.9322C95.782 15.9322 95.08 15.2302 95.08 14.3482C95.08 13.4662 95.782 12.7822 96.664 12.7822C97.528 12.7822 98.23 13.4662 98.23 14.3482C98.23 15.2302 97.528 15.9322 96.664 15.9322ZM95.296 26.3362V17.3362H98.068V26.3362H95.296Z" fill="black"/>
<rect x="-0.843551" y="0.148741" width="79.1604" height="25.9493" rx="12.9746" transform="matrix(-0.573406 0.819271 -0.819033 -0.573747 67.6266 65.2308)" fill="white" stroke="#EA4927" stroke-width="1.21162"/>
<rect x="6.6019" y="98.9386" width="87.3753" height="25.9103" rx="12.9551" fill="white" stroke="#EA4927" stroke-width="1.21162"/>
<rect x="-0.845248" y="-0.138815" width="80.2151" height="25.9486" rx="12.9743" transform="matrix(-0.583004 -0.812469 -0.812237 0.583328 99.0492 114.076)" fill="#151414"/>
<rect x="-0.845248" y="-0.138815" width="80.2151" height="25.9486" rx="12.9743" transform="matrix(-0.583004 -0.812469 -0.812237 0.583328 99.0492 114.076)" fill="#EA4927"/>
<rect x="-0.845248" y="-0.138815" width="80.2151" height="25.9486" rx="12.9743" transform="matrix(-0.583004 -0.812469 -0.812237 0.583328 99.0492 114.076)" stroke="white" stroke-width="1.21162"/>
<path d="M20.8841 116.244H17.8675V106.926H20.9797C21.8927 106.926 22.6768 107.112 23.332 107.485C23.9872 107.856 24.4892 108.388 24.838 109.083C25.1899 109.774 25.3658 110.604 25.3658 111.571C25.3658 112.542 25.1884 113.376 24.8335 114.074C24.4816 114.771 23.972 115.308 23.3047 115.684C22.6374 116.058 21.8305 116.244 20.8841 116.244ZM19.2734 115.016H20.8068C21.5165 115.016 22.1065 114.882 22.5767 114.615C23.0468 114.345 23.3987 113.956 23.6323 113.446C23.8658 112.933 23.9826 112.308 23.9826 111.571C23.9826 110.84 23.8658 110.22 23.6323 109.71C23.4017 109.201 23.0575 108.814 22.5994 108.55C22.1414 108.286 21.5727 108.154 20.8932 108.154H19.2734V115.016ZM27.1141 116.244V106.926H32.9563V108.136H28.5201V110.975H32.6514V112.181H28.5201V115.034H33.0109V116.244H27.1141ZM34.8342 116.244V106.926H36.2402V115.034H40.4625V116.244H34.8342ZM40.3931 108.136V106.926H47.6048V108.136H44.6974V116.244H43.296V108.136H40.3931ZM48.8845 116.244H47.3921L50.7454 106.926H52.3697L55.7231 116.244H54.2307L51.5963 108.618H51.5235L48.8845 116.244ZM49.1347 112.595H53.9759V113.778H49.1347V112.595Z" fill="#EA4927"/>
</svg>
