<svg width="33" height="32" viewBox="0 0 33 32" fill="none" xmlns="http://www.w3.org/2000/svg">
<path d="M29.8031 19.1826C29.2067 18.1434 28.5179 17.0768 27.7472 16.0017C28.5179 14.9249 29.2067 13.8601 29.8031 12.8209C31.5139 9.8263 32.4915 7.06253 32.5 4.77559C32.5 4.08507 32.4077 3.43555 32.2026 2.84074C31.9975 2.24593 31.6762 1.70754 31.2336 1.26656C30.7927 0.82558 30.2543 0.502509 29.6596 0.297403C29.0648 0.0922962 28.4154 0 27.7249 0C25.44 0.00683688 22.6748 0.986225 19.6805 2.69715C18.6414 3.29367 17.575 3.98249 16.5 4.75335C15.4233 3.98249 14.3586 3.29367 13.3195 2.69715C10.3252 0.986225 7.56175 0.0085461 5.27506 0C4.58461 0 3.93516 0.0922962 3.34042 0.297403C2.74567 0.502509 2.20733 0.82387 1.7664 1.26656C1.32547 1.70583 1.00248 2.24593 0.797391 2.83903C0.592307 3.43384 0.5 4.08335 0.5 4.77388C0.506836 7.05911 1.48612 9.82459 3.19686 12.8191C3.79332 13.8584 4.48206 14.9249 5.25284 16C4.48206 17.0768 3.79332 18.1416 3.19686 19.1809C1.48612 22.1754 0.508545 24.9409 0.5 27.2262C0.5 27.9167 0.592307 28.5662 0.797391 29.161C1.00248 29.7558 1.32376 30.2942 1.7664 30.7352C2.20733 31.1762 2.74567 31.4992 3.34042 31.7026C3.93516 31.9077 4.58461 32 5.27506 32C7.56004 31.9932 10.3252 31.0138 13.3195 29.3029C14.3586 28.7064 15.425 28.0176 16.5 27.2467C17.575 28.0176 18.6414 28.7064 19.6805 29.3029C22.6748 31.0138 25.4383 31.9915 27.7249 32C28.4154 32 29.0648 31.9077 29.6596 31.7026C30.2543 31.4975 30.7927 31.1762 31.2336 30.7352C31.6745 30.2942 31.9975 29.7558 32.2009 29.161C32.406 28.5662 32.4983 27.9167 32.4983 27.2262C32.4915 24.9409 31.5122 22.1754 29.8014 19.1809L29.8031 19.1826ZM20.4393 4.01838C23.2866 2.37924 25.8877 1.5161 27.7249 1.52294C28.2787 1.52294 28.7606 1.59815 29.1622 1.73659C29.5656 1.87675 29.8886 2.07674 30.1569 2.34166C30.4235 2.6083 30.6235 2.93302 30.7619 3.3364C30.9003 3.73807 30.9755 4.22009 30.9755 4.77388C30.9824 6.613 30.1193 9.21441 28.4803 12.0603C27.9847 12.9251 27.419 13.8122 26.7901 14.7147C25.5528 13.1131 24.1394 11.5031 22.5671 9.93058C20.9948 8.35981 19.3848 6.94458 17.7835 5.70711C18.6841 5.07811 19.5728 4.51234 20.4376 4.01667L20.4393 4.01838ZM25.857 16C24.5991 17.6631 23.1345 19.3484 21.4921 20.9909C19.8497 22.6335 18.1629 24.0983 16.5017 25.3563C14.8388 24.0983 13.1537 22.6335 11.5113 20.9909C9.86894 19.3484 8.40429 17.6614 7.14644 16C8.40429 14.3387 9.86894 12.6517 11.5113 11.0091C13.1537 9.36655 14.8405 7.90174 16.5017 6.64376C18.1629 7.90174 19.8497 9.36655 21.4921 11.0091C23.1345 12.6517 24.5991 14.3387 25.857 16ZM4.51965 12.0603C2.88069 9.2127 2.01763 6.61129 2.02447 4.77388C2.02447 4.22009 2.09966 3.73807 2.2381 3.3364C2.37824 2.93302 2.5782 2.61001 2.8431 2.34337C3.11142 2.07674 3.43442 1.87675 3.83775 1.73659C4.23937 1.59815 4.72133 1.52294 5.27506 1.52294C7.11398 1.5161 9.71513 2.37924 12.5607 4.01838C13.4254 4.51405 14.3142 5.07982 15.2148 5.70882C13.6134 6.94629 12.0035 8.35981 10.4312 9.93229C8.86062 11.5048 7.44552 13.1149 6.20818 14.7164C5.57926 13.8156 5.01356 12.9268 4.51794 12.062L4.51965 12.0603ZM12.5624 27.9817C9.71513 29.6208 7.11398 30.4839 5.27677 30.4771C4.72304 30.4771 4.24109 30.4019 3.83946 30.2634C3.43613 30.1233 3.11313 29.9233 2.84481 29.6584C2.5782 29.3917 2.37824 29.067 2.23981 28.6636C2.10138 28.262 2.02447 27.7799 2.02618 27.2262C2.01934 25.387 2.8824 22.7856 4.52137 19.9398C5.01699 19.0749 5.58268 18.1861 6.2116 17.2854C7.44895 18.8869 8.86231 20.497 10.4346 22.0695C12.0069 23.6402 13.6168 25.0555 15.2182 26.2929C14.3176 26.9219 13.4289 27.4877 12.5641 27.9833L12.5624 27.9817ZM30.7619 28.6619C30.6218 29.0653 30.4235 29.3883 30.1569 29.6567C29.8903 29.9233 29.5656 30.1216 29.1622 30.2617C28.7606 30.4019 28.2787 30.4754 27.7249 30.4754C25.886 30.4822 23.2849 29.6191 20.4393 27.98C19.5746 27.4843 18.6876 26.9185 17.7869 26.2895C19.3883 25.052 20.9982 23.6385 22.5705 22.066C24.1411 20.4936 25.5562 18.8835 26.7935 17.2819C27.4225 18.1827 27.9881 19.0715 28.4838 19.9364C30.1227 22.7839 30.9858 25.3853 30.979 27.2227C30.979 27.7765 30.9038 28.2586 30.7653 28.6602L30.7619 28.6619Z" fill="#EA4927"/>
</svg>
