<svg width="119" height="149" viewBox="0 0 119 149" fill="none" xmlns="http://www.w3.org/2000/svg">
<path d="M8.23732 24.1323H2.70801V7.40556H8.14478C13.142 7.40556 16.5197 10.7833 16.5197 15.7805C16.5197 20.7546 13.1883 24.1323 8.23732 24.1323ZM7.98284 9.48773H4.97526V22.027H8.07538C11.8001 22.027 14.1599 19.621 14.1599 15.7805C14.1599 11.8938 11.8001 9.48773 7.98284 9.48773ZM23.9156 24.4099C20.5841 24.4099 18.2937 22.0039 18.2937 18.4873C18.2937 14.9476 20.5378 12.4953 23.823 12.4953C27.0388 12.4953 29.1441 14.7163 29.1441 18.0709V18.8806L20.399 18.9038C20.561 21.2867 21.8103 22.6054 23.9619 22.6054C25.6507 22.6054 26.7612 21.9113 27.1314 20.6158H29.1673C28.612 23.045 26.7149 24.4099 23.9156 24.4099ZM23.823 14.323C21.926 14.323 20.7229 15.4566 20.4453 17.4462H26.9694C26.9694 15.5723 25.7433 14.323 23.823 14.323ZM33.7941 24.1323H31.6194V7.1048H33.7941V24.1323ZM40.1881 24.1323H38.0134V14.6469H35.7925V12.8192H38.0134V9.27952H40.1881V12.8192H42.4091V14.6469H40.1881V24.1323ZM47.5336 24.4099C45.1044 24.4099 43.67 23.045 43.67 20.9859C43.67 18.9038 45.22 17.6082 47.8806 17.4L51.4434 17.1224V16.7985C51.4434 14.9014 50.3098 14.2305 48.7829 14.2305C46.9552 14.2305 45.9141 15.0402 45.9141 16.4052H44.017C44.017 14.0454 45.9604 12.4953 48.8754 12.4953C51.6748 12.4953 53.5719 13.976 53.5719 17.0298V24.1323H51.721L51.4897 22.3046C50.9113 23.6002 49.3613 24.4099 47.5336 24.4099ZM48.1582 22.7211C50.2173 22.7211 51.4666 21.3792 51.4666 19.2508V18.6493L48.5747 18.8806C46.6544 19.0657 45.8678 19.806 45.8678 20.9165C45.8678 22.1196 46.747 22.7211 48.1582 22.7211ZM68.8091 24.1323H63.2798V7.40556H68.7166C73.7138 7.40556 77.0915 10.7833 77.0915 15.7805C77.0915 20.7546 73.76 24.1323 68.8091 24.1323ZM68.5546 9.48773H65.547V22.027H68.6472C72.3719 22.027 74.7317 19.621 74.7317 15.7805C74.7317 11.8938 72.3719 9.48773 68.5546 9.48773ZM84.4874 24.4099C81.1559 24.4099 78.8655 22.0039 78.8655 18.4873C78.8655 14.9476 81.1096 12.4953 84.3948 12.4953C87.6106 12.4953 89.7159 14.7163 89.7159 18.0709V18.8806L80.9708 18.9038C81.1328 21.2867 82.3821 22.6054 84.5336 22.6054C86.2225 22.6054 87.333 21.9113 87.7032 20.6158H89.7391C89.1838 23.045 87.2867 24.4099 84.4874 24.4099ZM84.3948 14.323C82.4978 14.323 81.2947 15.4566 81.0171 17.4462H87.5412C87.5412 15.5723 86.3151 14.323 84.3948 14.323ZM92.0293 18.9732V17.0298H99.0855V18.9732H92.0293ZM111.316 17.0298H104.746V24.1323H102.479V7.40556H112.566V9.48773H104.746V14.9708H111.316V17.0298ZM116.005 10.1355C115.219 10.1355 114.571 9.48773 114.571 8.70113C114.571 7.8914 115.219 7.26675 116.005 7.26675C116.792 7.26675 117.44 7.8914 117.44 8.70113C117.44 9.48773 116.792 10.1355 116.005 10.1355ZM114.941 24.1323V12.8192H117.116V24.1323H114.941Z" fill="#444444"/>
<rect x="79.48" y="65.6164" width="87.8838" height="28.4738" rx="14.2369" transform="rotate(125 79.48 65.6164)" fill="white" stroke="#151414" stroke-width="1.3539"/>
<rect x="11.1535" y="103.604" width="97.0777" height="28.4739" rx="14.2369" fill="white" stroke="#151414" stroke-width="1.3539"/>
<rect x="-0.94281" y="-0.166243" width="88.1294" height="28.4739" rx="14.2369" transform="matrix(-0.573576 -0.819152 -0.819152 0.573576 113.106 120.799)" fill="white" stroke="#151414" stroke-width="1.3539"/>
<path d="M26.3205 122.682H22.9496V112.269H26.4273C27.4475 112.269 28.3237 112.478 29.0558 112.895C29.788 113.308 30.3489 113.903 30.7387 114.679C31.1319 115.452 31.3285 116.379 31.3285 117.46C31.3285 118.545 31.1302 119.477 30.7337 120.257C30.3405 121.036 29.771 121.636 29.0253 122.057C28.2796 122.473 27.378 122.682 26.3205 122.682ZM24.5207 121.309H26.2341C27.0272 121.309 27.6865 121.16 28.2119 120.862C28.7372 120.56 29.1304 120.124 29.3914 119.555C29.6524 118.982 29.7829 118.284 29.7829 117.46C29.7829 116.643 29.6524 115.95 29.3914 115.381C29.1338 114.811 28.7491 114.379 28.2373 114.084C27.7255 113.789 27.0899 113.642 26.3307 113.642H24.5207V121.309ZM33.2821 122.682V112.269H39.8104V113.622H34.8532V116.794H39.4697V118.142H34.8532V121.329H39.8714V122.682H33.2821ZM41.9089 122.682V112.269H43.4799V121.329H48.1981V122.682H41.9089ZM48.1206 113.622V112.269H56.1792V113.622H52.9303V122.682H51.3644V113.622H48.1206ZM57.6091 122.682H55.9415L59.6886 112.269H61.5037L65.2508 122.682H63.5832L60.6394 114.161H60.558L57.6091 122.682ZM57.8888 118.604H63.2985V119.926H57.8888V118.604Z" fill="#151414"/>
</svg>
