<svg width="32" height="32" viewBox="0 0 32 32" fill="none" xmlns="http://www.w3.org/2000/svg">
<g clip-path="url(#clip0_961_4274)">
<path d="M27 9H22C22 7.4087 21.3679 5.88258 20.2426 4.75736C19.1174 3.63214 17.5913 3 16 3C14.4087 3 12.8826 3.63214 11.7574 4.75736C10.6321 5.88258 10 7.4087 10 9H5C4.46957 9 3.96086 9.21071 3.58579 9.58579C3.21071 9.96086 3 10.4696 3 11V26C3 26.5304 3.21071 27.0391 3.58579 27.4142C3.96086 27.7893 4.46957 28 5 28H27C27.5304 28 28.0391 27.7893 28.4142 27.4142C28.7893 27.0391 29 26.5304 29 26V11C29 10.4696 28.7893 9.96086 28.4142 9.58579C28.0391 9.21071 27.5304 9 27 9ZM16 5C17.0609 5 18.0783 5.42143 18.8284 6.17157C19.5786 6.92172 20 7.93913 20 9H12C12 7.93913 12.4214 6.92172 13.1716 6.17157C13.9217 5.42143 14.9391 5 16 5ZM27 26H5V11H27V26Z" fill="#EA4927"/>
</g>
<defs>
<clipPath id="clip0_961_4274">
<rect width="32" height="32" fill="white"/>
</clipPath>
</defs>
</svg>
