<svg width="32" height="32" viewBox="0 0 32 32" fill="none" xmlns="http://www.w3.org/2000/svg">
<path d="M5.33333 1.45937C7.48151 1.45937 9.22971 3.23126 9.22971 5.41215C9.22971 7.59304 7.48151 9.36494 5.33333 9.36494C3.18516 9.36494 1.43695 7.59304 1.43695 5.41215C1.43695 3.23126 3.18516 1.45937 5.33333 1.45937ZM5.33333 0C2.38847 0 0 2.42144 0 5.41056C0 8.39967 2.38847 10.821 5.33333 10.821C8.2782 10.821 10.6667 8.39967 10.6667 5.41056C10.6667 2.42144 8.2782 0 5.33333 0ZM26.6667 1.45937C28.8148 1.45937 30.5631 3.23126 30.5631 5.41215C30.5631 7.59304 28.8148 9.36494 26.6667 9.36494C24.5185 9.36494 22.7703 7.59304 22.7703 5.41215C22.7703 3.23126 24.5185 1.45937 26.6667 1.45937ZM26.6667 0C23.7202 0 21.3333 2.42144 21.3333 5.41056C21.3333 8.39967 23.7218 10.821 26.6667 10.821C29.6115 10.821 32 8.39967 32 5.41056C32 2.42144 29.6115 0 26.6667 0ZM16 12.0481C18.1482 12.0481 19.8964 13.8216 19.8964 16.0009C19.8964 18.1801 18.1498 19.9536 16 19.9536C13.8502 19.9536 12.1036 18.1818 12.1036 16.0009C12.1036 13.82 13.8518 12.0481 16 12.0481ZM16 10.5887C13.0551 10.5887 10.6667 13.0117 10.6667 15.9992C10.6667 18.9867 13.0551 21.4097 16 21.4097C18.9449 21.4097 21.3333 18.9883 21.3333 15.9992C21.3333 13.0101 18.9465 10.5887 16 10.5887ZM5.33333 22.6384C7.48151 22.6384 9.22971 24.4103 9.22971 26.5912C9.22971 28.7721 7.48151 30.5439 5.33333 30.5439C3.18516 30.5439 1.43695 28.7721 1.43695 26.5912C1.43695 24.4103 3.18516 22.6384 5.33333 22.6384ZM5.33333 21.179C2.38847 21.179 0 23.6004 0 26.5895C0 29.5786 2.38847 32 5.33333 32C8.2782 32 10.6667 29.5786 10.6667 26.5895C10.6667 23.6004 8.2782 21.179 5.33333 21.179ZM26.6667 22.6384C28.8148 22.6384 30.5631 24.4103 30.5631 26.5912C30.5631 28.7721 28.8148 30.5439 26.6667 30.5439C24.5185 30.5439 22.7703 28.7721 22.7703 26.5912C22.7703 24.4103 24.5185 22.6384 26.6667 22.6384ZM26.6667 21.179C23.7202 21.179 21.3333 23.6004 21.3333 26.5895C21.3333 29.5786 23.7218 32 26.6667 32C29.6115 32 32 29.5786 32 26.5895C32 23.6004 29.6115 21.179 26.6667 21.179Z" fill="#EA4927"/>
</svg>
