<svg width="32" height="32" viewBox="0 0 32 32" fill="none" xmlns="http://www.w3.org/2000/svg">
<path d="M6.63426 21.5008C9.12731 20.9969 11 18.8628 11 16.3082C11 13.3765 8.53689 11 5.5 11C2.46311 11 0 13.3765 0 16.3082C0 18.8644 1.87269 20.9969 4.36574 21.5008C1.87269 22.0046 0 24.1389 0 26.6935C0 29.6252 2.46145 32 5.5 32C8.53855 32 11 29.6252 11 26.6935C11 24.1373 9.12731 22.0046 6.63426 21.5008ZM1.48352 16.3082C1.48352 14.1708 3.2847 12.4313 5.50166 12.4313C7.71863 12.4313 9.51981 14.1708 9.51981 16.3082C9.51981 18.4456 7.71697 20.185 5.50166 20.185C3.28636 20.185 1.48352 18.4472 1.48352 16.3082ZM5.50166 30.5702C3.28636 30.5702 1.48352 28.8325 1.48352 26.6935C1.48352 24.5545 3.2847 22.8166 5.50166 22.8166C7.71863 22.8166 9.51981 24.5545 9.51981 26.6935C9.51981 28.8325 7.71697 30.5702 5.50166 30.5702Z" fill="#EA4927"/>
<path d="M27.6343 10.4992C30.1273 9.99532 32 7.86115 32 5.30655C32 2.37485 29.5386 0 26.5 0C23.4614 0 21 2.37485 21 5.30655C21 7.86276 22.8727 9.99532 25.3657 10.4992C22.8727 11.003 21 13.1372 21 15.6934C21 18.6251 23.4631 21 26.5 21C29.5369 21 32 18.6251 32 15.6934C32 13.1372 30.1273 11.0046 27.6343 10.4992ZM22.4835 5.30655C22.4835 3.16916 24.2864 1.42969 26.5017 1.42969C28.717 1.42969 30.5198 3.16755 30.5198 5.30655C30.5198 7.44555 28.7186 9.18341 26.5017 9.18341C24.2847 9.18341 22.4835 7.44555 22.4835 5.30655ZM26.5017 19.5703C24.2864 19.5703 22.4835 17.8324 22.4835 15.6934C22.4835 13.5545 24.2864 11.8166 26.5017 11.8166C28.717 11.8166 30.5198 13.5561 30.5198 15.6934C30.5198 17.8308 28.7186 19.5703 26.5017 19.5703Z" fill="#EA4927"/>
<path d="M17.6343 10.7048C20.1273 10.1911 22 8.01511 22 5.41048C22 2.42136 19.5386 0 16.5 0C13.4614 0 11 2.42136 11 5.41048C11 8.01675 12.8727 10.1911 15.3657 10.7048C12.8727 11.2185 11 13.3945 11 16.0008C11 18.6071 12.8727 20.7814 15.3657 21.2951C12.8727 21.8088 11 23.9849 11 26.5895C11 29.5786 13.4631 32 16.5 32C19.5369 32 22 29.5786 22 26.5895C22 23.9833 20.1273 21.8088 17.6343 21.2951C20.1273 20.7814 22 18.6054 22 16.0008C22 13.3962 20.1273 11.2202 17.6343 10.7048ZM12.4835 5.41048C12.4835 3.23122 14.2864 1.45769 16.5017 1.45769C18.717 1.45769 20.5198 3.22959 20.5198 5.41048C20.5198 7.59137 18.7186 9.36326 16.5017 9.36326C14.2847 9.36326 12.4835 7.59137 12.4835 5.41048ZM20.5181 26.5911C20.5181 28.7704 18.717 30.5439 16.5 30.5439C14.283 30.5439 12.4819 28.772 12.4819 26.5911C12.4819 24.4102 14.2847 22.6383 16.5 22.6383C18.7153 22.6383 20.5181 24.4102 20.5181 26.5911ZM16.5 19.9536C14.2847 19.9536 12.4819 18.1817 12.4819 16.0008C12.4819 13.8199 14.2847 12.048 16.5 12.048C18.7153 12.048 20.5181 13.8215 20.5181 16.0008C20.5181 18.1801 18.717 19.9536 16.5 19.9536Z" fill="#EA4927"/>
</svg>
