<svg width="30" height="30" viewBox="0 0 30 30" fill="none" xmlns="http://www.w3.org/2000/svg">
<g clip-path="url(#clip0_1021_589)">
<rect width="30" height="30" fill="#1C1B30"/>
<path d="M15.2546 10.0627C15.3298 10.1008 15.4132 10.1207 15.4979 10.1207C15.5826 10.1207 15.666 10.1008 15.7412 10.0627L23.763 6.01844C23.787 6.00665 23.8138 6.00109 23.8407 6.00227C23.8676 6.00346 23.8938 6.01135 23.9167 6.02519C23.9396 6.03904 23.9585 6.05839 23.9717 6.08139C23.9848 6.1044 23.9917 6.1303 23.9917 6.15663V9.40829C23.9917 9.50324 23.9648 9.59635 23.9142 9.67738C23.8636 9.75841 23.7912 9.82423 23.7047 9.86759L15.7329 13.8996C15.7086 13.9124 15.6814 13.9187 15.6539 13.918C15.6264 13.9173 15.5995 13.9096 15.576 13.8957C15.5525 13.8817 15.5331 13.862 15.5197 13.8384C15.5064 13.8149 15.4996 13.7883 15.5 13.7614V12.4201C15.5008 12.3245 15.4744 12.2305 15.4237 12.1487C15.373 12.0669 15.3001 12.0005 15.2131 11.9568L7.28695 7.9613C7.20051 7.91691 7.1281 7.85029 7.07753 7.76863C7.02697 7.68699 7.00017 7.59339 7.00002 7.49794V6.15663C6.99963 6.12973 7.00644 6.1032 7.01977 6.07966C7.03309 6.05612 7.05248 6.03639 7.07601 6.02243C7.09954 6.00847 7.12639 6.00075 7.15391 6.00005C7.18143 5.99935 7.20865 6.00569 7.23289 6.01844L15.2546 10.083V10.0627ZM15.2546 15.1068L7.23289 11.0422C7.20865 11.0295 7.18143 11.0232 7.15391 11.0239C7.12639 11.0246 7.09954 11.0323 7.07601 11.0462C7.05248 11.0602 7.03309 11.0799 7.01977 11.1035C7.00644 11.127 6.99963 11.1535 7.00002 11.1804V12.5258C6.9994 12.622 7.02585 12.7164 7.07645 12.7988C7.12706 12.8813 7.19988 12.9485 7.28695 12.9932L15.1881 16.9887C15.281 17.0304 15.3595 17.0975 15.4141 17.1819C15.4687 17.2663 15.4971 17.3644 15.4958 17.4643V18.8056C15.4954 18.8325 15.5023 18.859 15.5156 18.8826C15.5289 18.9061 15.5483 18.9258 15.5718 18.9398C15.5954 18.9538 15.6222 18.9615 15.6497 18.9622C15.6772 18.9629 15.7045 18.9565 15.7287 18.9438L23.7047 14.9198C23.7919 14.877 23.8653 14.8115 23.9167 14.7304C23.968 14.6493 23.9955 14.5559 23.9958 14.4606V11.2089C23.9962 11.182 23.9894 11.1555 23.9761 11.1319C23.9628 11.1084 23.9433 11.0887 23.9198 11.0747C23.8963 11.0607 23.8694 11.053 23.8419 11.0523C23.8144 11.0516 23.7872 11.058 23.763 11.0707L15.7329 15.0865C15.6577 15.1246 15.5743 15.1445 15.4896 15.1445C15.4049 15.1445 15.3215 15.1246 15.2463 15.0865L15.2546 15.1068ZM15.2463 20.1144L7.23289 16.0661C7.20851 16.0545 7.18156 16.0491 7.1545 16.0504C7.12744 16.0516 7.10112 16.0594 7.07796 16.0732C7.05481 16.087 7.03554 16.1061 7.02192 16.129C7.00831 16.1519 7.00077 16.1778 7.00002 16.2042V17.5497C6.99953 17.6446 7.02611 17.738 7.07679 17.8191C7.12746 17.9002 7.20023 17.966 7.28695 18.009L15.1881 22.0085C15.2748 22.0515 15.3476 22.1172 15.3983 22.1983C15.449 22.2794 15.4755 22.3727 15.475 22.4678V23.8131C15.4692 23.8446 15.4732 23.877 15.4866 23.9062C15.4999 23.9354 15.522 23.9599 15.5499 23.9766C15.5777 23.9934 15.6101 24.0014 15.6428 23.9998C15.6755 23.9982 15.7069 23.9869 15.7329 23.9676L23.7088 19.9437C23.7964 19.9002 23.8699 19.8339 23.9213 19.7522C23.9726 19.6703 23.9999 19.5763 24 19.4803V16.2286C23.9992 16.2022 23.9917 16.1763 23.978 16.1534C23.9645 16.1306 23.9451 16.1113 23.922 16.0976C23.8989 16.0838 23.8726 16.076 23.8455 16.0747C23.8185 16.0735 23.7914 16.0789 23.7671 16.0904L15.7329 20.1144C15.6577 20.1525 15.5743 20.1724 15.4896 20.1724C15.4049 20.1724 15.3215 20.1525 15.2463 20.1144Z" fill="#9340F4"/>
</g>
<defs>
<clipPath id="clip0_1021_589">
<rect width="30" height="30" fill="white"/>
</clipPath>
</defs>
</svg>
