<svg width="32" height="32" viewBox="0 0 32 32" fill="none" xmlns="http://www.w3.org/2000/svg">
<path d="M5.33333 1.45937C7.4815 1.45937 9.22971 3.23126 9.22971 5.41215C9.22971 7.59304 7.4815 9.36494 5.33333 9.36494C3.18516 9.36494 1.43695 7.59304 1.43695 5.41215C1.43695 3.23126 3.18355 1.45937 5.33333 1.45937ZM5.33333 0C2.38686 0 0 2.42144 0 5.41056C0 8.39967 2.38686 10.821 5.33333 10.821C8.27981 10.821 10.6667 8.39967 10.6667 5.41056C10.6667 2.42144 8.2782 0 5.33333 0ZM16 1.45937C18.1482 1.45937 19.8964 3.23126 19.8964 5.41215C19.8964 7.59304 18.1482 9.36494 16 9.36494C13.8518 9.36494 12.1036 7.59304 12.1036 5.41215C12.1036 3.23126 13.8502 1.45937 16 1.45937ZM16 0C13.0535 0 10.6667 2.42144 10.6667 5.41056C10.6667 8.39967 13.0535 10.821 16 10.821C18.9465 10.821 21.3333 8.39967 21.3333 5.41056C21.3333 2.42144 18.9449 0 16 0ZM26.6667 1.45937C28.8148 1.45937 30.563 3.23126 30.563 5.41215C30.563 7.59304 28.8164 9.36494 26.6667 9.36494C24.5169 9.36494 22.7703 7.59304 22.7703 5.41215C22.7703 3.23126 24.5169 1.45937 26.6667 1.45937ZM26.6667 0C23.7202 0 21.3333 2.42144 21.3333 5.41056C21.3333 8.39967 23.7202 10.821 26.6667 10.821C29.6131 10.821 32 8.39967 32 5.41056C32 2.42144 29.6131 0 26.6667 0ZM5.33333 12.0481C7.4815 12.0481 9.22971 13.8216 9.22971 16.0009C9.22971 18.1801 7.4815 19.9536 5.33333 19.9536C3.18516 19.9536 1.43695 18.1818 1.43695 16.0009C1.43695 13.82 3.18355 12.0481 5.33333 12.0481ZM5.33333 10.5887C2.38686 10.5887 0 13.0117 0 15.9992C0 18.9867 2.38686 21.4097 5.33333 21.4097C8.27981 21.4097 10.6667 18.9883 10.6667 15.9992C10.6667 13.0101 8.2782 10.5887 5.33333 10.5887ZM26.6667 12.0481C28.8148 12.0481 30.563 13.8216 30.563 16.0009C30.563 18.1801 28.8164 19.9536 26.6667 19.9536C24.5169 19.9536 22.7703 18.1818 22.7703 16.0009C22.7703 13.82 24.5169 12.0481 26.6667 12.0481ZM26.6667 10.5887C23.7202 10.5887 21.3333 13.0117 21.3333 15.9992C21.3333 18.9867 23.7202 21.4097 26.6667 21.4097C29.6131 21.4097 32 18.9883 32 15.9992C32 13.0101 29.6131 10.5887 26.6667 10.5887ZM5.33333 22.6384C7.4815 22.6384 9.22971 24.4103 9.22971 26.5912C9.22971 28.7721 7.4815 30.5439 5.33333 30.5439C3.18516 30.5439 1.43695 28.7721 1.43695 26.5912C1.43695 24.4103 3.18355 22.6384 5.33333 22.6384ZM5.33333 21.179C2.38686 21.179 0 23.6004 0 26.5895C0 29.5786 2.38686 32 5.33333 32C8.27981 32 10.6667 29.5786 10.6667 26.5895C10.6667 23.6004 8.2782 21.179 5.33333 21.179ZM16 22.6384C18.1482 22.6384 19.8964 24.4103 19.8964 26.5912C19.8964 28.7721 18.1482 30.5439 16 30.5439C13.8518 30.5439 12.1036 28.7721 12.1036 26.5912C12.1036 24.4103 13.8502 22.6384 16 22.6384ZM16 21.179C13.0535 21.179 10.6667 23.6004 10.6667 26.5895C10.6667 29.5786 13.0535 32 16 32C18.9465 32 21.3333 29.5786 21.3333 26.5895C21.3333 23.6004 18.9449 21.179 16 21.179ZM26.6667 22.6384C28.8148 22.6384 30.563 24.4103 30.563 26.5912C30.563 28.7721 28.8164 30.5439 26.6667 30.5439C24.5169 30.5439 22.7703 28.7721 22.7703 26.5912C22.7703 24.4103 24.5169 22.6384 26.6667 22.6384ZM26.6667 21.179C23.7202 21.179 21.3333 23.6004 21.3333 26.5895C21.3333 29.5786 23.7202 32 26.6667 32C29.6131 32 32 29.5786 32 26.5895C32 23.6004 29.6131 21.179 26.6667 21.179Z" fill="#EA4927"/>
</svg>
