<svg width="32" height="32" viewBox="0 0 32 32" fill="none" xmlns="http://www.w3.org/2000/svg">
<g clip-path="url(#clip0_961_4304)">
<path d="M21.04 5.15282C20.3689 4.90854 19.6311 4.90854 18.96 5.15282L13.2173 7.24452C13.1536 7.26781 13.0987 7.30972 13.0598 7.36464C13.021 7.41955 13.0001 7.48485 13 7.55178V11.2192C12.3375 11.1159 11.6625 11.1159 11 11.2192V7.55046C11.0001 7.081 11.1462 6.62283 11.4187 6.2376C11.6911 5.85237 12.0769 5.55857 12.524 5.39573L18.2667 3.30534C19.3852 2.89822 20.6148 2.89822 21.7333 3.30534L27.476 5.39573C27.9231 5.55857 28.3089 5.85237 28.5813 6.2376C28.8538 6.62283 28.9999 7.081 29 7.55046V21.5608C29.0002 22.0305 28.8542 22.489 28.5817 22.8744C28.3092 23.2599 27.9233 23.5539 27.476 23.7168L22.1187 25.6654C22.2587 25.282 22.3333 24.8723 22.3333 24.4482V23.4884L26.7827 21.8694C26.8466 21.846 26.9017 21.8039 26.9406 21.7487C26.9794 21.6935 27.0002 21.628 27 21.5608V7.55046C26.9999 7.48354 26.979 7.41824 26.9402 7.36333C26.9013 7.30841 26.8464 7.2665 26.7827 7.24321L21.04 5.15282ZM15.6933 10.3131C15.4426 10.2278 15.2366 10.0479 15.1206 9.81299C15.0045 9.57807 14.988 9.30739 15.0747 9.06048C15.1613 8.81358 15.344 8.61068 15.5825 8.49642C15.8211 8.38216 16.0959 8.3659 16.3467 8.45122L19.8907 9.65924C19.9611 9.68315 20.0376 9.68315 20.108 9.65924L23.6413 8.45122C23.8921 8.36555 24.1671 8.38148 24.4059 8.49549C24.6446 8.6095 24.8277 8.81226 24.9147 9.05917C25.0017 9.30607 24.9855 9.5769 24.8697 9.81206C24.7539 10.0472 24.5481 10.2275 24.2973 10.3131L20.764 11.5198C20.2695 11.6884 19.7318 11.6884 19.2373 11.5198L15.6933 10.3131ZM7.69333 19.5046C7.44262 19.4192 7.23658 19.2393 7.12056 19.0044C7.00454 18.7695 6.98803 18.4988 7.07467 18.2519C7.1613 18.005 7.34399 17.8021 7.58254 17.6878C7.82108 17.5736 8.09595 17.5573 8.34667 17.6426L12 18.8874L15.6427 17.6439C15.7678 17.5972 15.9012 17.5756 16.0349 17.5805C16.1687 17.5854 16.3 17.6168 16.4213 17.6726C16.5425 17.7284 16.6511 17.8077 16.7407 17.9056C16.8303 18.0036 16.8989 18.1182 16.9427 18.2428C16.9864 18.3674 17.0043 18.4993 16.9953 18.6308C16.9863 18.7623 16.9506 18.8907 16.8903 19.0084C16.83 19.126 16.7463 19.2306 16.6443 19.3158C16.5422 19.401 16.4237 19.4652 16.296 19.5046L13 20.6298V24.1751C13 24.4363 12.8946 24.6868 12.7071 24.8715C12.5196 25.0561 12.2652 25.1599 12 25.1599C11.7348 25.1599 11.4804 25.0561 11.2929 24.8715C11.1054 24.6868 11 24.4363 11 24.1751V20.6298L7.69333 19.5046ZM13.7333 12.7594C12.6148 12.3522 11.3852 12.3522 10.2667 12.7594L4.524 14.8498C4.07688 15.0126 3.69114 15.3064 3.41867 15.6916C3.14621 16.0769 3.0001 16.535 3 17.0045V24.4495C2.99982 24.9192 3.14581 25.3777 3.41829 25.7632C3.69078 26.1487 4.07667 26.4427 4.524 26.6056L10.2667 28.6947C11.3852 29.1018 12.6148 29.1018 13.7333 28.6947L19.476 26.6043C19.9233 26.4413 20.3092 26.1474 20.5817 25.7619C20.8542 25.3764 21.0002 24.9179 21 24.4482V17.0032C20.9999 16.5337 20.8538 16.0755 20.5813 15.6903C20.3089 15.3051 19.9231 15.0113 19.476 14.8484L13.7333 12.7594ZM10.96 14.6068C11.6311 14.3626 12.3689 14.3626 13.04 14.6068L18.7827 16.6972C18.8464 16.7205 18.9013 16.7624 18.9402 16.8174C18.979 16.8723 18.9999 16.9376 19 17.0045V24.4495C19.0002 24.5167 18.9794 24.5823 18.9406 24.6374C18.9017 24.6926 18.8466 24.7347 18.7827 24.7581L13.04 26.8472C12.3689 27.0915 11.6311 27.0915 10.96 26.8472L5.21733 24.7568C5.15341 24.7334 5.0983 24.6913 5.05944 24.6361C5.02057 24.581 4.99983 24.5154 5 24.4482V17.0032C5.0001 16.9363 5.02097 16.871 5.05982 16.816C5.09866 16.7611 5.15362 16.7192 5.21733 16.6959L10.96 14.6068Z" fill="#EA4927"/>
</g>
<defs>
<clipPath id="clip0_961_4304">
<rect width="32" height="32" fill="white"/>
</clipPath>
</defs>
</svg>
