<svg width="31" height="32" viewBox="0 0 31 32" fill="none" xmlns="http://www.w3.org/2000/svg">
<path d="M10.1 26.6664C9.4061 27.5958 9.12395 27.9198 8.55425 27.9904C7.98455 28.0611 7.589 27.7371 6.79925 27.0931C3.86435 24.6931 2 21.0998 2 17.0865C2 9.85994 8.04395 4 15.5 4C22.9561 4 29 9.85861 29 17.0865C29 21.0998 27.1357 24.6918 24.2007 27.0931C23.411 27.7384 23.0168 28.0611 22.4458 27.9904C21.8761 27.9198 21.5939 27.5958 20.9 26.6664M17.525 13.9999L23.6 6.66664" stroke="#EA4927" stroke-width="2" stroke-linecap="round" stroke-linejoin="round"/>
<path d="M15 18C16.1046 18 17 17.1046 17 16C17 14.8954 16.1046 14 15 14C13.8954 14 13 14.8954 13 16C13 17.1046 13.8954 18 15 18Z" stroke="#EA4927" stroke-width="1.5" stroke-linecap="round" stroke-linejoin="round"/>
</svg>
