<svg width="32" height="32" viewBox="0 0 32 32" fill="none" xmlns="http://www.w3.org/2000/svg">
<path d="M16.5 11C19.5385 11 22 8.53693 22 5.50004C22 2.46316 19.5385 0 16.5 0C13.4614 0 11 2.46149 11 5.50004C11 8.53859 13.4631 11 16.5 11ZM16.5 1.48188C18.7153 1.48188 20.5181 3.28308 20.5181 5.50004C20.5181 7.717 18.717 9.51812 16.5 9.51812C14.283 9.51812 12.4819 7.717 12.4819 5.50004C12.4819 3.28308 14.2847 1.48188 16.5 1.48188Z" fill="#EA4927"/>
<path d="M6.63426 10.4992C9.12731 9.99532 11 7.86115 11 5.30655C11 2.37485 8.53854 0 5.49999 0C2.46144 0 0 2.37485 0 5.30655C0 7.86276 1.87269 9.99532 4.36574 10.4992C1.87269 11.003 0 13.1372 0 15.6934C0 18.6251 2.4631 21 5.49999 21C8.53688 21 11 18.6251 11 15.6934C11 13.1372 9.12731 11.0046 6.63426 10.4992ZM1.48353 5.30655C1.48353 3.16916 3.28635 1.42969 5.50165 1.42969C7.71695 1.42969 9.5198 3.16755 9.5198 5.30655C9.5198 7.44555 7.71862 9.18341 5.50165 9.18341C3.28469 9.18341 1.48353 7.44555 1.48353 5.30655ZM5.50165 19.5703C3.28635 19.5703 1.48353 17.8324 1.48353 15.6934C1.48353 13.5545 3.28635 11.8166 5.50165 11.8166C7.71695 11.8166 9.5198 13.5561 9.5198 15.6934C9.5198 17.8308 7.71862 19.5703 5.50165 19.5703Z" fill="#EA4927"/>
<path d="M16.5 21C13.4631 21 11 23.4615 11 26.5C11 29.5386 13.4631 32 16.5 32C19.5369 32 22 29.5386 22 26.5C22 23.4615 19.5385 21 16.5 21ZM16.5 30.5181C14.2847 30.5181 12.4819 28.717 12.4819 26.5C12.4819 24.2831 14.2847 22.4819 16.5 22.4819C18.7153 22.4819 20.5181 24.2831 20.5181 26.5C20.5181 28.717 18.717 30.5181 16.5 30.5181Z" fill="#EA4927"/>
<path d="M27.6343 21.5008C30.1273 20.9969 32 18.8628 32 16.3082C32 13.3765 29.5369 11 26.5 11C23.4631 11 21 13.3765 21 16.3082C21 18.8644 22.8727 20.9969 25.3657 21.5008C22.8727 22.0046 21 24.1389 21 26.6935C21 29.6252 23.4631 32 26.5 32C29.5369 32 32 29.6252 32 26.6935C32 24.1373 30.1273 22.0046 27.6343 21.5008ZM22.4818 16.3082C22.4818 14.1708 24.2847 12.4313 26.5 12.4313C28.7153 12.4313 30.5181 14.1708 30.5181 16.3082C30.5181 18.4456 28.7153 20.185 26.5 20.185C24.2847 20.185 22.4818 18.4472 22.4818 16.3082ZM26.5 30.5702C24.2847 30.5702 22.4818 28.8325 22.4818 26.6935C22.4818 24.5545 24.2847 22.8166 26.5 22.8166C28.7153 22.8166 30.5181 24.5545 30.5181 26.6935C30.5181 28.8325 28.7153 30.5702 26.5 30.5702Z" fill="#EA4927"/>
</svg>
