<svg width="42" height="42" viewBox="0 0 42 42" fill="none" xmlns="http://www.w3.org/2000/svg">
<g filter="url(#filter0_d_226_1099)">
<circle cx="21" cy="19" r="17" fill="url(#paint0_linear_226_1099)" fill-opacity="0.04" shape-rendering="crispEdges"/>
<circle cx="21" cy="19" r="16.5" stroke="#EA4927" shape-rendering="crispEdges"/>
</g>
<path d="M30.8957 20.334C30.7995 20.2376 30.6789 20.1692 30.5468 20.1362C30.4146 20.1032 30.276 20.1067 30.1457 20.1465C28.7156 20.5789 27.1951 20.6151 25.746 20.2514C24.2969 19.8877 22.9737 19.1377 21.9173 18.0813C20.8608 17.0249 20.1108 15.7016 19.7471 14.2525C19.3834 12.8035 19.4196 11.2829 19.852 9.85279C19.8921 9.72248 19.896 9.5837 19.8631 9.45137C19.8302 9.31903 19.7619 9.19816 19.6655 9.10175C19.5691 9.00534 19.4482 8.93703 19.3159 8.90418C19.1836 8.87132 19.0448 8.87517 18.9145 8.91529C16.9373 9.52096 15.2016 10.7348 13.9542 12.384C12.8633 13.8323 12.1979 15.5561 12.0327 17.3618C11.8676 19.1674 12.2091 20.9833 13.0191 22.6055C13.8291 24.2277 15.0754 25.5919 16.6179 26.5448C18.1605 27.4978 19.9382 28.0017 21.7514 28C23.8667 28.0064 25.9257 27.3188 27.6126 26.0425C29.2619 24.7951 30.4757 23.0593 31.0814 21.0822C31.121 20.9523 31.1247 20.8142 31.092 20.6824C31.0593 20.5507 30.9915 20.4303 30.8957 20.334ZM26.7107 24.8444C25.1222 26.0408 23.1549 26.6232 21.171 26.4843C19.1871 26.3454 17.3202 25.4945 15.9139 24.0884C14.5076 22.6822 13.6565 20.8153 13.5175 18.8314C13.3784 16.8475 13.9606 14.8802 15.157 13.2915C15.9364 12.2622 16.9441 11.4278 18.1007 10.854C18.0348 11.3164 18.0016 11.7829 18.0014 12.25C18.0041 14.835 19.0322 17.3134 20.8601 19.1413C22.688 20.9691 25.1663 21.9972 27.7514 22C28.2194 21.9998 28.6868 21.9666 29.1501 21.9006C28.5758 23.0574 27.7407 24.0651 26.7107 24.8444Z" fill="#EA4927"/>
<defs>
<filter id="filter0_d_226_1099" x="0" y="0" width="42" height="42" filterUnits="userSpaceOnUse" color-interpolation-filters="sRGB">
<feFlood flood-opacity="0" result="BackgroundImageFix"/>
<feColorMatrix in="SourceAlpha" type="matrix" values="0 0 0 0 0 0 0 0 0 0 0 0 0 0 0 0 0 0 127 0" result="hardAlpha"/>
<feOffset dy="2"/>
<feGaussianBlur stdDeviation="2"/>
<feComposite in2="hardAlpha" operator="out"/>
<feColorMatrix type="matrix" values="0 0 0 0 1 0 0 0 0 1 0 0 0 0 1 0 0 0 0.25 0"/>
<feBlend mode="normal" in2="BackgroundImageFix" result="effect1_dropShadow_226_1099"/>
<feBlend mode="normal" in="SourceGraphic" in2="effect1_dropShadow_226_1099" result="shape"/>
</filter>
<linearGradient id="paint0_linear_226_1099" x1="21" y1="2" x2="21" y2="36" gradientUnits="userSpaceOnUse">
<stop offset="0.9999" stop-color="white"/>
<stop offset="1" stop-color="#999999"/>
</linearGradient>
</defs>
</svg>
