<svg width="86" height="72" viewBox="0 0 86 72" fill="none" xmlns="http://www.w3.org/2000/svg">
<rect x="59.8598" y="11.9034" width="75.1544" height="24.3496" rx="12.1748" transform="rotate(125 59.8598 11.9034)" fill="#151414" stroke="white" stroke-width="1.1578"/>
<rect x="1.42851" y="44.3885" width="83.0166" height="24.3496" rx="12.1748" fill="#151414" stroke="white" stroke-width="1.1578"/>
<rect x="-0.80625" y="-0.142164" width="75.3644" height="24.3496" rx="12.1748" transform="matrix(-0.573576 -0.819152 -0.819152 0.573576 88.6149 59.0929)" fill="#151414" stroke="white" stroke-width="1.1578"/>
<path d="M14.4 60.4414H11.5173V51.537H14.4913C15.3637 51.537 16.113 51.7153 16.7391 52.0718C17.3652 52.4254 17.8449 52.9341 18.1782 53.5979C18.5145 54.2588 18.6826 55.0515 18.6826 55.9762C18.6826 56.9037 18.513 57.7008 18.1739 58.3675C17.8377 59.0342 17.3507 59.5472 16.713 59.9066C16.0753 60.2631 15.3043 60.4414 14.4 60.4414ZM12.8608 59.2675H14.326C15.0043 59.2675 15.5681 59.1399 16.0174 58.8849C16.4666 58.6269 16.8029 58.2544 17.0261 57.7675C17.2492 57.2776 17.3608 56.6805 17.3608 55.9762C17.3608 55.2776 17.2492 54.6849 17.0261 54.1979C16.8058 53.7109 16.4768 53.3414 16.0391 53.0892C15.6014 52.837 15.0579 52.7109 14.4087 52.7109H12.8608V59.2675ZM20.3533 60.4414V51.537H25.9359V52.6935H21.6967V55.4066H25.6446V56.5588H21.6967V59.2849H25.9881V60.4414H20.3533ZM27.7305 60.4414V51.537H29.074V59.2849H33.1088V60.4414H27.7305ZM33.0425 52.6935V51.537H39.9338V52.6935H37.1555V60.4414H35.8164V52.6935H33.0425ZM41.1566 60.4414H39.7305L42.9349 51.537H44.4871L47.6915 60.4414H46.2654L43.748 53.1544H43.6784L41.1566 60.4414ZM41.3958 56.9544H46.0219V58.0849H41.3958V56.9544Z" fill="#F7F4F3"/>
</svg>
