<svg width="42" height="42" viewBox="0 0 42 42" fill="none" xmlns="http://www.w3.org/2000/svg">
<g filter="url(#filter0_d_60_1201)">
<circle cx="21" cy="19" r="17" fill="url(#paint0_linear_60_1201)" fill-opacity="0.04" shape-rendering="crispEdges"/>
<circle cx="21" cy="19" r="16.5" stroke="#EA4927" shape-rendering="crispEdges"/>
</g>
<path d="M20.25 11.25V9C20.25 8.80109 20.329 8.61032 20.4697 8.46967C20.6103 8.32902 20.8011 8.25 21 8.25C21.1989 8.25 21.3897 8.32902 21.5303 8.46967C21.671 8.61032 21.75 8.80109 21.75 9V11.25C21.75 11.4489 21.671 11.6397 21.5303 11.7803C21.3897 11.921 21.1989 12 21 12C20.8011 12 20.6103 11.921 20.4697 11.7803C20.329 11.6397 20.25 11.4489 20.25 11.25ZM27 19.5C27 20.6867 26.6481 21.8467 25.9888 22.8334C25.3295 23.8201 24.3925 24.5892 23.2961 25.0433C22.1997 25.4974 20.9933 25.6162 19.8295 25.3847C18.6656 25.1532 17.5965 24.5818 16.7574 23.7426C15.9182 22.9035 15.3468 21.8344 15.1153 20.6705C14.8838 19.5067 15.0026 18.3003 15.4567 17.2039C15.9108 16.1075 16.6799 15.1705 17.6666 14.5112C18.6533 13.8519 19.8133 13.5 21 13.5C22.5908 13.5017 24.1159 14.1344 25.2407 15.2593C26.3656 16.3841 26.9983 17.9092 27 19.5ZM25.5 19.5C25.5 18.61 25.2361 17.74 24.7416 16.9999C24.2471 16.2599 23.5443 15.6831 22.7221 15.3425C21.8998 15.0019 20.995 14.9128 20.1221 15.0865C19.2492 15.2601 18.4474 15.6887 17.818 16.318C17.1887 16.9474 16.7601 17.7492 16.5865 18.6221C16.4128 19.495 16.5019 20.3998 16.8425 21.2221C17.1831 22.0443 17.7599 22.7471 18.4999 23.2416C19.24 23.7361 20.11 24 21 24C22.1931 23.9988 23.337 23.5243 24.1806 22.6806C25.0243 21.837 25.4988 20.6931 25.5 19.5ZM14.4694 14.0306C14.6101 14.1714 14.801 14.2504 15 14.2504C15.199 14.2504 15.3899 14.1714 15.5306 14.0306C15.6714 13.8899 15.7504 13.699 15.7504 13.5C15.7504 13.301 15.6714 13.1101 15.5306 12.9694L14.0306 11.4694C13.8899 11.3286 13.699 11.2496 13.5 11.2496C13.301 11.2496 13.1101 11.3286 12.9694 11.4694C12.8286 11.6101 12.7496 11.801 12.7496 12C12.7496 12.199 12.8286 12.3899 12.9694 12.5306L14.4694 14.0306ZM14.4694 24.9694L12.9694 26.4694C12.8286 26.6101 12.7496 26.801 12.7496 27C12.7496 27.199 12.8286 27.3899 12.9694 27.5306C13.1101 27.6714 13.301 27.7504 13.5 27.7504C13.699 27.7504 13.8899 27.6714 14.0306 27.5306L15.5306 26.0306C15.6003 25.9609 15.6556 25.8782 15.6933 25.7872C15.731 25.6961 15.7504 25.5985 15.7504 25.5C15.7504 25.4015 15.731 25.3039 15.6933 25.2128C15.6556 25.1218 15.6003 25.0391 15.5306 24.9694C15.4609 24.8997 15.3782 24.8444 15.2872 24.8067C15.1961 24.769 15.0985 24.7496 15 24.7496C14.9015 24.7496 14.8039 24.769 14.7128 24.8067C14.6218 24.8444 14.5391 24.8997 14.4694 24.9694ZM27 14.25C27.0985 14.2501 27.1961 14.2307 27.2871 14.1931C27.3782 14.1555 27.4609 14.1003 27.5306 14.0306L29.0306 12.5306C29.1714 12.3899 29.2504 12.199 29.2504 12C29.2504 11.801 29.1714 11.6101 29.0306 11.4694C28.8899 11.3286 28.699 11.2496 28.5 11.2496C28.301 11.2496 28.1101 11.3286 27.9694 11.4694L26.4694 12.9694C26.3644 13.0743 26.2928 13.208 26.2639 13.3535C26.2349 13.4991 26.2497 13.65 26.3065 13.7871C26.3633 13.9242 26.4596 14.0414 26.583 14.1238C26.7065 14.2062 26.8516 14.2501 27 14.25ZM27.5306 24.9694C27.3899 24.8286 27.199 24.7496 27 24.7496C26.801 24.7496 26.6101 24.8286 26.4694 24.9694C26.3286 25.1101 26.2496 25.301 26.2496 25.5C26.2496 25.699 26.3286 25.8899 26.4694 26.0306L27.9694 27.5306C28.0391 27.6003 28.1218 27.6556 28.2128 27.6933C28.3039 27.731 28.4015 27.7504 28.5 27.7504C28.5985 27.7504 28.6961 27.731 28.7872 27.6933C28.8782 27.6556 28.9609 27.6003 29.0306 27.5306C29.1003 27.4609 29.1556 27.3782 29.1933 27.2872C29.231 27.1961 29.2504 27.0985 29.2504 27C29.2504 26.9015 29.231 26.8039 29.1933 26.7128C29.1556 26.6218 29.1003 26.5391 29.0306 26.4694L27.5306 24.9694ZM13.5 19.5C13.5 19.3011 13.421 19.1103 13.2803 18.9697C13.1397 18.829 12.9489 18.75 12.75 18.75H10.5C10.3011 18.75 10.1103 18.829 9.96967 18.9697C9.82902 19.1103 9.75 19.3011 9.75 19.5C9.75 19.6989 9.82902 19.8897 9.96967 20.0303C10.1103 20.171 10.3011 20.25 10.5 20.25H12.75C12.9489 20.25 13.1397 20.171 13.2803 20.0303C13.421 19.8897 13.5 19.6989 13.5 19.5ZM21 27C20.8011 27 20.6103 27.079 20.4697 27.2197C20.329 27.3603 20.25 27.5511 20.25 27.75V30C20.25 30.1989 20.329 30.3897 20.4697 30.5303C20.6103 30.671 20.8011 30.75 21 30.75C21.1989 30.75 21.3897 30.671 21.5303 30.5303C21.671 30.3897 21.75 30.1989 21.75 30V27.75C21.75 27.5511 21.671 27.3603 21.5303 27.2197C21.3897 27.079 21.1989 27 21 27ZM31.5 18.75H29.25C29.0511 18.75 28.8603 18.829 28.7197 18.9697C28.579 19.1103 28.5 19.3011 28.5 19.5C28.5 19.6989 28.579 19.8897 28.7197 20.0303C28.8603 20.171 29.0511 20.25 29.25 20.25H31.5C31.6989 20.25 31.8897 20.171 32.0303 20.0303C32.171 19.8897 32.25 19.6989 32.25 19.5C32.25 19.3011 32.171 19.1103 32.0303 18.9697C31.8897 18.829 31.6989 18.75 31.5 18.75Z" fill="#EA4927"/>
<defs>
<filter id="filter0_d_60_1201" x="0" y="0" width="42" height="42" filterUnits="userSpaceOnUse" color-interpolation-filters="sRGB">
<feFlood flood-opacity="0" result="BackgroundImageFix"/>
<feColorMatrix in="SourceAlpha" type="matrix" values="0 0 0 0 0 0 0 0 0 0 0 0 0 0 0 0 0 0 127 0" result="hardAlpha"/>
<feOffset dy="2"/>
<feGaussianBlur stdDeviation="2"/>
<feComposite in2="hardAlpha" operator="out"/>
<feColorMatrix type="matrix" values="0 0 0 0 1 0 0 0 0 1 0 0 0 0 1 0 0 0 0.25 0"/>
<feBlend mode="normal" in2="BackgroundImageFix" result="effect1_dropShadow_60_1201"/>
<feBlend mode="normal" in="SourceGraphic" in2="effect1_dropShadow_60_1201" result="shape"/>
</filter>
<linearGradient id="paint0_linear_60_1201" x1="21" y1="2" x2="21" y2="36" gradientUnits="userSpaceOnUse">
<stop offset="0.9999" stop-color="white"/>
<stop offset="1" stop-color="#999999"/>
</linearGradient>
</defs>
</svg>
