<svg width="25" height="25" viewBox="0 0 25 25" fill="none" xmlns="http://www.w3.org/2000/svg">
<circle cx="12.5002" cy="12.5002" r="11.2502" stroke="#37DE52" stroke-width="2.50005"/>
<path d="M18.4571 9.55067L10.957 17.0508C10.9134 17.0944 10.8617 17.129 10.8048 17.1526C10.7479 17.1762 10.6869 17.1883 10.6253 17.1883C10.5637 17.1883 10.5027 17.1762 10.4458 17.1526C10.3889 17.129 10.3372 17.0944 10.2937 17.0508L7.01237 13.7695C6.92441 13.6815 6.875 13.5622 6.875 13.4379C6.875 13.3135 6.92441 13.1942 7.01237 13.1062C7.10033 13.0182 7.21963 12.9688 7.34402 12.9688C7.46841 12.9688 7.58771 13.0182 7.67567 13.1062L10.6253 16.0565L17.7938 8.88737C17.8818 8.79941 18.0011 8.75 18.1255 8.75C18.2499 8.75 18.3692 8.79941 18.4571 8.88737C18.5451 8.97533 18.5945 9.09463 18.5945 9.21902C18.5945 9.34341 18.5451 9.46271 18.4571 9.55067Z" fill="#37DE52"/>
</svg>
