<svg width="30" height="30" viewBox="0 0 30 30" fill="none" xmlns="http://www.w3.org/2000/svg">
<path fill-rule="evenodd" clip-rule="evenodd" d="M15 8C19.6423 8 22.2873 11.1773 23.4501 13.0711C23.8096 13.6525 24 14.3226 24 15.0062C24 15.6897 23.8096 16.3598 23.4501 16.9412C22.2873 18.835 19.6423 22.0123 15 22.0123C10.3577 22.0123 7.7127 18.835 6.54988 16.9412C6.19041 16.3598 6 15.6897 6 15.0062C6 14.3226 6.19041 13.6525 6.54988 13.0711C7.7127 11.1773 10.3577 8 15 8ZM15 20.5129C18.9128 20.5129 21.1732 17.7801 22.1718 16.1562C22.3854 15.8106 22.4985 15.4124 22.4985 15.0062C22.4985 14.5999 22.3854 14.2017 22.1718 13.8561C21.1732 12.2292 18.9128 9.49944 15 9.49944C11.0872 9.49944 8.82679 12.2322 7.82816 13.8561C7.61459 14.2017 7.50147 14.5999 7.50147 15.0062C7.50147 15.4124 7.61459 15.8106 7.82816 16.1562C8.82679 17.7801 11.0872 20.5129 15 20.5129ZM12.9179 11.8896C13.5344 11.4777 14.2592 11.2578 15.0006 11.2578C15.9944 11.259 16.9472 11.6543 17.6499 12.3571C18.3527 13.0598 18.748 14.0126 18.7492 15.0064C18.7492 15.7478 18.5293 16.4726 18.1174 17.089C17.7055 17.7055 17.1201 18.186 16.4351 18.4697C15.7501 18.7534 14.9964 18.8276 14.2692 18.683C13.5421 18.5384 12.8742 18.1813 12.3499 17.6571C11.8256 17.1328 11.4686 16.4649 11.324 15.7377C11.1793 15.0106 11.2536 14.2569 11.5373 13.5719C11.821 12.8869 12.3015 12.3015 12.9179 11.8896ZM13.751 16.8765C14.1209 17.1237 14.5557 17.2556 15.0006 17.2556C15.5971 17.2556 16.1692 17.0186 16.591 16.5968C17.0128 16.175 17.2497 15.6029 17.2497 15.0064C17.2497 14.5616 17.1178 14.1267 16.8707 13.7569C16.6235 13.387 16.2723 13.0987 15.8613 12.9285C15.4503 12.7582 14.9981 12.7137 14.5618 12.8005C14.1255 12.8873 13.7247 13.1015 13.4102 13.416C13.0956 13.7306 12.8814 14.1313 12.7946 14.5676C12.7078 15.0039 12.7524 15.4562 12.9226 15.8671C13.0928 16.2781 13.3811 16.6294 13.751 16.8765Z" fill="#EA4927"/>
<path d="M24 8L6 22" stroke="#EA4927" stroke-width="1.5" stroke-linecap="round"/>
</svg>
