<svg width="17" height="17" viewBox="0 0 17 17" fill="none" xmlns="http://www.w3.org/2000/svg">
<circle cx="8.33374" cy="8.3335" r="7.50015" stroke="#EA4927" stroke-width="1.6667"/>
<path d="M12.3047 6.36703L7.30457 11.3671C7.27555 11.3962 7.24108 11.4192 7.20315 11.435C7.16521 11.4507 7.12454 11.4588 7.08347 11.4588C7.04241 11.4588 7.00174 11.4507 6.9638 11.435C6.92587 11.4192 6.8914 11.3962 6.86238 11.3671L4.67483 9.17958C4.61619 9.12095 4.58325 9.04141 4.58325 8.95849C4.58325 8.87556 4.61619 8.79603 4.67483 8.73739C4.73347 8.67875 4.813 8.64581 4.89593 8.64581C4.97886 8.64581 5.05839 8.67875 5.11703 8.73739L7.08347 10.7042L11.8625 5.92483C11.9211 5.86619 12.0006 5.83325 12.0836 5.83325C12.1665 5.83325 12.246 5.86619 12.3047 5.92483C12.3633 5.98347 12.3963 6.063 12.3963 6.14593C12.3963 6.22886 12.3633 6.30839 12.3047 6.36703Z" fill="#EA4927"/>
</svg>
