<svg width="24" height="24" viewBox="0 0 24 24" fill="none" xmlns="http://www.w3.org/2000/svg">
<circle cx="12.5" cy="12.5" r="7.66665" stroke="#EA4927" stroke-width="1.6667"/>
<path d="M16.9062 9.56931L11.7865 14.9022C11.7567 14.9332 11.7214 14.9578 11.6826 14.9746C11.6438 14.9914 11.6021 15 11.5601 15C11.518 15 11.4764 14.9914 11.4375 14.9746C11.3987 14.9578 11.3634 14.9332 11.3337 14.9022L9.09377 12.5691C9.03373 12.5065 9 12.4217 9 12.3333C9 12.2448 9.03373 12.16 9.09377 12.0975C9.15382 12.0349 9.23525 11.9998 9.32016 11.9998C9.40508 11.9998 9.48651 12.0349 9.54655 12.0975L11.5601 14.1952L16.4534 9.09768C16.5135 9.03514 16.5949 9 16.6798 9C16.7647 9 16.8462 9.03514 16.9062 9.09768C16.9663 9.16022 17 9.24505 17 9.33349C17 9.42194 16.9663 9.50677 16.9062 9.56931Z" fill="#EA4927"/>
</svg>
