<svg width="33" height="32" viewBox="0 0 33 32" fill="none" xmlns="http://www.w3.org/2000/svg">
<path d="M27.3333 6V12C27.3333 12.2652 27.2279 12.5196 27.0404 12.7071C26.8528 12.8946 26.5985 13 26.3333 13C26.068 13 25.8137 12.8946 25.6261 12.7071C25.4386 12.5196 25.3333 12.2652 25.3333 12V8.41375L20.0408 13.7075C19.8531 13.8951 19.5986 14.0006 19.3333 14.0006C19.0679 14.0006 18.8134 13.8951 18.6258 13.7075C18.4381 13.5199 18.3327 13.2654 18.3327 13C18.3327 12.7346 18.4381 12.4801 18.6258 12.2925L23.9195 7H20.3333C20.068 7 19.8137 6.89464 19.6261 6.70711C19.4386 6.51957 19.3333 6.26522 19.3333 6C19.3333 5.73478 19.4386 5.48043 19.6261 5.29289C19.8137 5.10536 20.068 5 20.3333 5H26.3333C26.5985 5 26.8528 5.10536 27.0404 5.29289C27.2279 5.48043 27.3333 5.73478 27.3333 6ZM12.6258 18.2925L7.33325 23.5863V20C7.33325 19.7348 7.22789 19.4804 7.04036 19.2929C6.85282 19.1054 6.59847 19 6.33325 19C6.06804 19 5.81368 19.1054 5.62615 19.2929C5.43861 19.4804 5.33325 19.7348 5.33325 20V26C5.33325 26.2652 5.43861 26.5196 5.62615 26.7071C5.81368 26.8946 6.06804 27 6.33325 27H12.3333C12.5985 27 12.8528 26.8946 13.0404 26.7071C13.2279 26.5196 13.3333 26.2652 13.3333 26C13.3333 25.7348 13.2279 25.4804 13.0404 25.2929C12.8528 25.1054 12.5985 25 12.3333 25H8.747L14.0408 19.7075C14.2284 19.5199 14.3338 19.2654 14.3338 19C14.3338 18.7346 14.2284 18.4801 14.0408 18.2925C13.8531 18.1049 13.5986 17.9994 13.3333 17.9994C13.0679 17.9994 12.8134 18.1049 12.6258 18.2925ZM26.3333 19C26.068 19 25.8137 19.1054 25.6261 19.2929C25.4386 19.4804 25.3333 19.7348 25.3333 20V23.5863L20.0408 18.2925C19.8531 18.1049 19.5986 17.9994 19.3333 17.9994C19.0679 17.9994 18.8134 18.1049 18.6258 18.2925C18.4381 18.4801 18.3327 18.7346 18.3327 19C18.3327 19.2654 18.4381 19.5199 18.6258 19.7075L23.9195 25H20.3333C20.068 25 19.8137 25.1054 19.6261 25.2929C19.4386 25.4804 19.3333 25.7348 19.3333 26C19.3333 26.2652 19.4386 26.5196 19.6261 26.7071C19.8137 26.8946 20.068 27 20.3333 27H26.3333C26.5985 27 26.8528 26.8946 27.0404 26.7071C27.2279 26.5196 27.3333 26.2652 27.3333 26V20C27.3333 19.7348 27.2279 19.4804 27.0404 19.2929C26.8528 19.1054 26.5985 19 26.3333 19ZM8.747 7H12.3333C12.5985 7 12.8528 6.89464 13.0404 6.70711C13.2279 6.51957 13.3333 6.26522 13.3333 6C13.3333 5.73478 13.2279 5.48043 13.0404 5.29289C12.8528 5.10536 12.5985 5 12.3333 5H6.33325C6.06804 5 5.81368 5.10536 5.62615 5.29289C5.43861 5.48043 5.33325 5.73478 5.33325 6V12C5.33325 12.2652 5.43861 12.5196 5.62615 12.7071C5.81368 12.8946 6.06804 13 6.33325 13C6.59847 13 6.85282 12.8946 7.04036 12.7071C7.22789 12.5196 7.33325 12.2652 7.33325 12V8.41375L12.6258 13.7075C12.8134 13.8951 13.0679 14.0006 13.3333 14.0006C13.5986 14.0006 13.8531 13.8951 14.0408 13.7075C14.2284 13.5199 14.3338 13.2654 14.3338 13C14.3338 12.7346 14.2284 12.4801 14.0408 12.2925L8.747 7Z" fill="#EA4927"/>
</svg>
